<svg xmlns="http://www.w3.org/2000/svg" width="420" height="200" viewBox="0 0 420 200"><rect x="0.5" y="0.5" width="419" height="199" rx="8" fill="#0d1117" stroke="#30363d"/><text x="24" y="38" font-family="'Segoe UI', Ubuntu, 'Helvetica Neue', sans-serif" font-size="17" font-weight="600" fill="#58a6ff">Top Languages</text><clipPath id="bar"><rect x="24" y="56" width="372.0" height="10" rx="5"/></clipPath><rect x="24.0" y="56" width="203.7" height="10" fill="#3572A5" clip-path="url(#bar)"/><rect x="226.7" y="56" width="96.9" height="10" fill="#f34b7d" clip-path="url(#bar)"/><rect x="322.6" y="56" width="61.0" height="10" fill="#8b949e" clip-path="url(#bar)"/><rect x="382.5" y="56" width="7.6" height="10" fill="#DA5B0B" clip-path="url(#bar)"/><rect x="389.1" y="56" width="4.7" height="10" fill="#3178c6" clip-path="url(#bar)"/><rect x="392.8" y="56" width="4.2" height="10" fill="#f1e05a" clip-path="url(#bar)"/><circle cx="29" cy="92" r="4.5" fill="#3572A5"/><text x="42" y="96" font-family="'Segoe UI', Ubuntu, 'Helvetica Neue', sans-serif" font-size="13" fill="#c9d1d9">Python</text><text x="196" y="96" text-anchor="end" font-family="'Segoe UI', Ubuntu, 'Helvetica Neue', sans-serif" font-size="13" fill="#8b949e">54%</text><circle cx="229" cy="92" r="4.5" fill="#f34b7d"/><text x="242" y="96" font-family="'Segoe UI', Ubuntu, 'Helvetica Neue', sans-serif" font-size="13" fill="#c9d1d9">C++</text><text x="396" y="96" text-anchor="end" font-family="'Segoe UI', Ubuntu, 'Helvetica Neue', sans-serif" font-size="13" fill="#8b949e">26%</text><circle cx="29" cy="123" r="4.5" fill="#8b949e"/><text x="42" y="127" font-family="'Segoe UI', Ubuntu, 'Helvetica Neue', sans-serif" font-size="13" fill="#c9d1d9">NASL</text><text x="196" y="127" text-anchor="end" font-family="'Segoe UI', Ubuntu, 'Helvetica Neue', sans-serif" font-size="13" fill="#8b949e">16%</text><circle cx="229" cy="123" r="4.5" fill="#DA5B0B"/><text x="242" y="127" font-family="'Segoe UI', Ubuntu, 'Helvetica Neue', sans-serif" font-size="13" fill="#c9d1d9">Jupyter Notebook</text><text x="396" y="127" text-anchor="end" font-family="'Segoe UI', Ubuntu, 'Helvetica Neue', sans-serif" font-size="13" fill="#8b949e">1.8%</text><circle cx="29" cy="154" r="4.5" fill="#3178c6"/><text x="42" y="158" font-family="'Segoe UI', Ubuntu, 'Helvetica Neue', sans-serif" font-size="13" fill="#c9d1d9">TypeScript</text><text x="196" y="158" text-anchor="end" font-family="'Segoe UI', Ubuntu, 'Helvetica Neue', sans-serif" font-size="13" fill="#8b949e">1.0%</text><circle cx="229" cy="154" r="4.5" fill="#f1e05a"/><text x="242" y="158" font-family="'Segoe UI', Ubuntu, 'Helvetica Neue', sans-serif" font-size="13" fill="#c9d1d9">JavaScript</text><text x="396" y="158" text-anchor="end" font-family="'Segoe UI', Ubuntu, 'Helvetica Neue', sans-serif" font-size="13" fill="#8b949e">0.9%</text></svg>